<mxfile host="app.diagrams.net" agent="Mozilla/5.0 (Windows NT 10.0; Win64; x64) AppleWebKit/537.36 (KHTML, like Gecko) Chrome/131.0.0.0 Safari/537.36" version="25.0.3">
  <diagram name="Страница — 1" id="i8iB9iJnGBKzG6_9LXSC">
    <mxGraphModel dx="1235" dy="727" grid="1" gridSize="10" guides="1" tooltips="1" connect="1" arrows="1" fold="1" page="1" pageScale="1" pageWidth="1169" pageHeight="826" math="0" shadow="0">
      <root>
        <mxCell id="0" />
        <mxCell id="1" parent="0" />
        <mxCell id="B0qu9K6X8MOppLqb8AyA-3" style="edgeStyle=orthogonalEdgeStyle;rounded=0;orthogonalLoop=1;jettySize=auto;html=1;exitX=1;exitY=0.3333333333333333;exitDx=0;exitDy=0;exitPerimeter=0;entryX=0;entryY=0.5;entryDx=0;entryDy=0;" parent="1" source="_ez2GbapAwy16mK7dTrn-1" target="_ez2GbapAwy16mK7dTrn-2" edge="1">
          <mxGeometry relative="1" as="geometry" />
        </mxCell>
        <mxCell id="_ez2GbapAwy16mK7dTrn-1" value="Сотрудник" style="shape=umlActor;verticalLabelPosition=bottom;verticalAlign=top;html=1;" parent="1" vertex="1">
          <mxGeometry x="114" y="346" width="30" height="60" as="geometry" />
        </mxCell>
        <mxCell id="8zUJcpFfa-y-wAursbDI-2" style="edgeStyle=orthogonalEdgeStyle;rounded=0;orthogonalLoop=1;jettySize=auto;html=1;exitX=1;exitY=0.5;exitDx=0;exitDy=0;entryX=0;entryY=0.5;entryDx=0;entryDy=0;startArrow=classic;startFill=1;" edge="1" parent="1" source="_ez2GbapAwy16mK7dTrn-2" target="B0qu9K6X8MOppLqb8AyA-5">
          <mxGeometry relative="1" as="geometry" />
        </mxCell>
        <mxCell id="_ez2GbapAwy16mK7dTrn-2" value="Главная форма приложения" style="ellipse;whiteSpace=wrap;html=1;" parent="1" vertex="1">
          <mxGeometry x="165" y="331" width="140" height="70" as="geometry" />
        </mxCell>
        <mxCell id="8zUJcpFfa-y-wAursbDI-6" style="edgeStyle=entityRelationEdgeStyle;rounded=0;orthogonalLoop=1;jettySize=auto;html=1;exitX=1;exitY=0.5;exitDx=0;exitDy=0;entryX=0;entryY=0.5;entryDx=0;entryDy=0;curved=1;startArrow=classic;startFill=1;" edge="1" parent="1" target="B0qu9K6X8MOppLqb8AyA-9">
          <mxGeometry relative="1" as="geometry">
            <mxPoint x="480.0000000000002" y="366" as="sourcePoint" />
          </mxGeometry>
        </mxCell>
        <mxCell id="8zUJcpFfa-y-wAursbDI-7" style="edgeStyle=entityRelationEdgeStyle;rounded=0;orthogonalLoop=1;jettySize=auto;html=1;exitX=1;exitY=0.5;exitDx=0;exitDy=0;entryX=0;entryY=0.5;entryDx=0;entryDy=0;curved=1;startArrow=classic;startFill=1;" edge="1" parent="1" target="8zUJcpFfa-y-wAursbDI-3">
          <mxGeometry relative="1" as="geometry">
            <mxPoint x="480.0000000000002" y="366" as="sourcePoint" />
          </mxGeometry>
        </mxCell>
        <mxCell id="8zUJcpFfa-y-wAursbDI-13" style="edgeStyle=orthogonalEdgeStyle;rounded=0;orthogonalLoop=1;jettySize=auto;html=1;exitX=1;exitY=0.5;exitDx=0;exitDy=0;entryX=0;entryY=0.5;entryDx=0;entryDy=0;startArrow=classic;startFill=1;" edge="1" parent="1" source="B0qu9K6X8MOppLqb8AyA-5" target="8zUJcpFfa-y-wAursbDI-12">
          <mxGeometry relative="1" as="geometry" />
        </mxCell>
        <mxCell id="B0qu9K6X8MOppLqb8AyA-5" value="Форма для работы сотрудника" style="ellipse;whiteSpace=wrap;html=1;" parent="1" vertex="1">
          <mxGeometry x="340" y="331" width="140" height="70" as="geometry" />
        </mxCell>
        <mxCell id="8zUJcpFfa-y-wAursbDI-10" style="edgeStyle=orthogonalEdgeStyle;rounded=0;orthogonalLoop=1;jettySize=auto;html=1;exitX=1;exitY=0.5;exitDx=0;exitDy=0;entryX=0;entryY=0.5;entryDx=0;entryDy=0;startArrow=classic;startFill=1;" edge="1" parent="1" source="B0qu9K6X8MOppLqb8AyA-9" target="8zUJcpFfa-y-wAursbDI-8">
          <mxGeometry relative="1" as="geometry" />
        </mxCell>
        <mxCell id="B0qu9K6X8MOppLqb8AyA-9" value="Оказанные услуги в указанный период времени" style="ellipse;whiteSpace=wrap;html=1;" parent="1" vertex="1">
          <mxGeometry x="540" y="240" width="140" height="70" as="geometry" />
        </mxCell>
        <mxCell id="8zUJcpFfa-y-wAursbDI-11" style="edgeStyle=orthogonalEdgeStyle;rounded=0;orthogonalLoop=1;jettySize=auto;html=1;exitX=1;exitY=0.5;exitDx=0;exitDy=0;entryX=0;entryY=0.5;entryDx=0;entryDy=0;startArrow=classic;startFill=1;" edge="1" parent="1" source="8zUJcpFfa-y-wAursbDI-3" target="8zUJcpFfa-y-wAursbDI-9">
          <mxGeometry relative="1" as="geometry" />
        </mxCell>
        <mxCell id="8zUJcpFfa-y-wAursbDI-3" value="Автомобили выбранного клиента" style="ellipse;whiteSpace=wrap;html=1;" vertex="1" parent="1">
          <mxGeometry x="540" y="426" width="140" height="70" as="geometry" />
        </mxCell>
        <mxCell id="8zUJcpFfa-y-wAursbDI-8" value="Добавление/изменение/удаление оказанной услуги" style="ellipse;whiteSpace=wrap;html=1;" vertex="1" parent="1">
          <mxGeometry x="710" y="240" width="140" height="70" as="geometry" />
        </mxCell>
        <mxCell id="8zUJcpFfa-y-wAursbDI-9" value="Добавление/изменение/удаление автомобиля" style="ellipse;whiteSpace=wrap;html=1;" vertex="1" parent="1">
          <mxGeometry x="710" y="426" width="140" height="70" as="geometry" />
        </mxCell>
        <mxCell id="8zUJcpFfa-y-wAursbDI-12" value="Клиенты" style="ellipse;whiteSpace=wrap;html=1;" vertex="1" parent="1">
          <mxGeometry x="540" y="331" width="140" height="70" as="geometry" />
        </mxCell>
      </root>
    </mxGraphModel>
  </diagram>
</mxfile>
